<svg aria-hidden="true" version="1.2" xmlns="http://www.w3.org/2000/svg" viewBox="0 0 512 512" width="512" height="512">
	<title>React FlatifyCSS logo</title>
	<g>
		<path fill="#1586ba" d="m258.5 14.4c12.7 0.3 24.9 1 31 2 5.5 0.9 15.6 3 22.5 4.6 6.9 1.7 17.2 4.7 23 6.6 5.8 2 16.4 6.4 23.5 9.8 7.1 3.4 16.8 8.6 21.5 11.5 4.7 2.9 11.6 7.6 15.5 10.4 3.9 2.8 10.8 8.4 15.5 12.3 4.7 4 12.4 11.2 17.1 16 4.7 4.9 11.4 12.5 14.9 16.9 3.4 4.4 8.9 11.8 12 16.5 3.1 4.7 8 12.6 10.7 17.5 2.8 4.9 7.1 13.7 9.6 19.5 2.5 5.8 5.7 14.1 7.2 18.5 1.4 4.4 4.1 14.1 5.9 21.5 1.9 7.4 4.2 18.9 5.2 25.5 1.3 8.7 1.8 17.5 1.8 32-0.1 13.6-0.6 23.5-1.8 31-0.9 6.1-2.8 16.2-4.2 22.5-1.4 6.3-4.6 17.6-7 25-2.5 7.4-7.6 19.8-11.4 27.5-3.8 7.7-10.4 19.4-14.8 26-4.4 6.6-11.1 15.8-14.9 20.5-3.7 4.6-11.1 12.8-16.3 18-5.2 5.3-13.3 12.6-18 16.4-4.7 3.7-13.9 10.4-20.5 14.7-6.6 4.4-16.7 10.4-22.5 13.3-5.8 3-14.8 7-20 9.1-5.2 2-14.9 5.2-21.5 7.1-6.6 1.9-17.9 4.6-25 5.9-7.1 1.3-19.5 2.9-27.5 3.5-8 0.6-18.8 0.9-24 0.5-5.2-0.3-14.7-1.3-21-2.1-6.3-0.8-17.8-3-25.5-4.9-7.7-1.8-18.3-4.8-23.5-6.5-5.2-1.8-13.3-4.9-18-7-4.7-2-12.8-6.1-18-9-5.2-2.9-13.3-7.8-18-11-4.7-3.1-13-9.3-18.5-13.7-5.5-4.5-14.7-13-20.5-18.9-5.8-6-14.4-16.1-19.2-22.4-4.7-6.3-11.1-15.6-14.1-20.5-3-4.9-7.3-12.7-9.6-17.3-2.2-4.5-5.8-12.6-8-17.9-2.1-5.4-5.3-14.7-7-20.8-1.8-6.1-4.3-16.4-5.6-23-1.3-6.6-2.9-17.2-3.6-23.5-0.7-7.1-1-18.8-0.6-30.5 0.3-10.4 1.3-23.2 2.1-28.3 0.9-5 2.7-13.8 4-19.4 1.3-5.7 4.1-15.5 6.2-21.8 2-6.3 5.8-16.2 8.3-22 2.6-5.8 7.9-15.9 11.8-22.5 3.9-6.6 10.4-16.5 14.5-22 4.1-5.5 11-14 15.4-19 4.3-4.9 11.7-12.3 16.4-16.4 4.7-4 12.5-10.4 17.5-14.2 5-3.7 13-9.3 18-12.4 4.9-3.1 14.6-8.4 21.5-11.7 6.9-3.4 19-8.3 27-10.9 8-2.6 20.1-5.9 27-7.3 6.9-1.5 17-3.3 22.5-4.1 6.9-1 16.5-1.3 31-1.1z"/>
		<path fill="#1896d1" d="m253.5 27.1c6.6-0.1 16.7 0.3 22.5 0.9 5.8 0.6 15.2 1.9 21 3 5.8 1.1 15.2 3.3 21 5 5.8 1.6 14.8 4.6 20 6.7 5.2 2 14.4 6.2 20.5 9.3 6.1 3 15.5 8.5 21 12.2 5.5 3.7 13.8 9.7 18.5 13.5 4.7 3.7 12.6 10.8 17.5 15.8 5 4.9 12.5 13.3 16.7 18.5 4.2 5.2 10.3 13.8 13.7 19 3.4 5.2 8.6 14.2 11.6 20 2.9 5.8 7.2 15.2 9.4 21 2.3 5.8 5.2 14.3 6.6 19 1.4 4.7 3.3 12.8 4.4 18 1 5.2 2.4 13.6 3 18.5 0.5 4.9 1.3 13.5 1.6 19 0.4 5.5 0.1 16.3-0.5 24-0.6 7.7-1.7 18.1-2.6 23-0.8 4.9-2.8 13.9-4.3 20-1.6 6.1-4.6 15.5-6.6 21-2 5.5-6.1 14.9-9.1 21-2.9 6.1-8.3 15.7-12 21.5-3.6 5.8-9.6 14.3-13.3 19-3.6 4.6-10.4 12.5-15.1 17.4-4.7 4.9-12.8 12.5-18 16.8-5.2 4.4-14.7 11.5-21 15.7-6.3 4.2-17.1 10.4-24 13.8-6.9 3.3-17 7.8-22.5 9.8-5.5 2-14.9 5-21 6.5-6.1 1.5-15.3 3.6-20.5 4.5-5.9 1.1-17.3 1.9-30 2.2-12.8 0.4-24.5 0.1-31-0.6-5.8-0.7-14.8-2.1-20-3.1-5.2-1.1-13.6-3.1-18.5-4.5-4.9-1.4-13.3-4.2-18.5-6.2-5.2-1.9-14.7-6.2-21-9.4-6.3-3.2-15.8-8.6-21-12-5.2-3.4-13.8-9.5-19-13.7-5.2-4.2-13.6-11.7-18.5-16.7-5-4.9-12.1-12.8-15.8-17.5-3.8-4.7-9.7-12.8-13.1-18-3.5-5.2-8.6-13.8-11.4-19-2.8-5.2-7.1-14.4-9.5-20.5-2.5-6.1-5.9-15.7-7.6-21.5-1.6-5.8-3.9-15-5-20.5-1.1-5.5-2.5-14.4-3-19.8-0.6-5.3-1.1-16.2-1.1-24.2 0-8 0.5-18.9 1.1-24.3 0.5-5.3 2.1-15.3 3.5-22.2 1.4-6.9 4.6-18.8 7.2-26.5 2.5-7.7 7.9-20.5 11.8-28.5 4-8 9.9-18.6 13.1-23.5 3.3-5 9.6-13.5 14-19 4.4-5.5 12.7-14.5 18.4-20 5.7-5.6 14.7-13.4 19.9-17.4 5.2-4 13.3-9.7 18-12.6 4.7-2.9 13.4-7.7 19.5-10.7 6.1-3.1 15.3-7.1 20.5-9.1 5.2-2 14.2-4.9 20-6.5 5.8-1.6 15-3.7 20.5-4.7 5.5-0.9 13.6-2 18-2.5 4.4-0.4 13.4-0.8 20-0.9z"/>
		<path fill="#1586ba" d="m254 109.1c48-0.1 59.9 0.1 66.5 1.4 4.4 0.8 11.1 2.5 15 3.8 3.9 1.3 10.1 4 14 6 3.9 2 10.8 6.7 15.5 10.4 5.6 4.5 10.8 9.9 15.3 15.8 3.7 5 8.3 12.2 10.2 16 1.8 3.8 4.5 10.8 5.9 15.5 1.3 4.7 2.9 12 3.5 16.3 0.7 4.8 1.1 27.6 1.1 60.7 0 33.1-0.4 55.9-1.1 60.8-0.6 4.2-2.2 11.5-3.5 16.2-1.4 4.7-4.1 11.6-5.9 15.5-1.9 3.9-6.5 11-10.2 16-4.4 5.9-9.8 11.4-15.3 15.8-5 4.1-12.6 8.8-18.5 11.7-5.5 2.7-14.1 5.9-19 7.2-9 2.3-9.3 2.3-72.5 2.3-63.2 0-63.5 0-72.5-2.3-4.9-1.3-13.5-4.5-19-7.2-5.9-2.9-13.5-7.6-18.5-11.7-5.5-4.4-10.9-9.9-15.3-15.8-3.7-5-8.3-12.1-10.2-16-1.8-3.9-4.5-10.8-5.9-15.5-1.3-4.7-2.9-12-3.5-16.2-0.7-4.9-1.1-27.7-1.1-60.8 0-33.1 0.4-55.9 1.1-60.8 0.6-4.2 2.2-11.5 3.5-16.2 1.4-4.7 4.1-11.7 5.9-15.5 1.9-3.8 6.5-11 10.2-16 4.5-5.9 9.7-11.3 15.3-15.8 4.7-3.7 11.9-8.5 16-10.6 4.1-2.2 9.8-4.7 12.5-5.6 2.8-0.9 8.8-2.5 13.5-3.5 7.7-1.7 14.3-1.9 67-1.9z"/>
		<path fill="#1cb0f6" d="m259.5 121.4c55.3 0.2 57.2 0.3 65 2.4 4.4 1.2 11.6 4 16 6.1 4.4 2.1 10.7 5.8 14 8.3 3.3 2.5 8.2 7 10.9 9.9 2.7 3 6.8 8.3 9.1 11.9 2.4 3.6 5.4 9.2 6.8 12.5 1.4 3.3 3.3 9.1 4.3 13 1.8 6.5 1.9 11.9 1.9 69.5 0 57.6-0.1 63-1.9 69.5-1 3.9-2.9 9.7-4.3 13-1.4 3.3-4.4 8.9-6.8 12.5-2.3 3.6-6.4 8.9-9.1 11.9-2.7 2.9-7.6 7.4-10.9 9.9-3.3 2.5-9.6 6.2-14 8.3-4.4 2.1-11.6 4.9-16 6.1-7.9 2.2-8.9 2.3-69.5 2.3-60.6 0-61.6-0.1-69.5-2.3-4.4-1.2-11.6-4-16-6.1-4.4-2.1-10.7-5.8-14-8.3-3.3-2.5-8.2-7-10.9-9.9-2.7-3-6.8-8.3-9.1-11.9-2.4-3.6-5.4-9.2-6.8-12.5-1.4-3.3-3.3-9.1-4.3-13-1.8-6.5-1.9-11.9-1.9-69.5 0-57.6 0.1-63 1.9-69.5 1-3.9 2.9-9.7 4.3-13 1.4-3.3 4.4-8.9 6.8-12.5 2.3-3.6 6.4-8.9 9.1-11.9 2.7-2.9 7.6-7.4 10.9-9.8 3.3-2.5 8.9-6 12.5-7.8 3.6-1.8 9.7-4.2 13.5-5.4 3.8-1.2 10.2-2.6 14-3 3.8-0.5 32.6-0.8 64-0.7z"/>
		<path fill="#1394d7" d="m215.5 153c3.5 0 8.9 0.8 13 2.1 3.8 1.2 8.8 3 11 4.2 2.2 1.1 6.6 3.7 9.8 5.8 3.1 2.2 5.8 3.9 5.9 3.9 0.2 0 4.1-2.4 8.8-5.5 5-3.2 11.8-6.6 16.5-8.1 6.7-2.2 9.3-2.5 16-2.2 5.1 0.3 9.4 1.2 11.9 2.4 2.2 1 5.8 3.5 8 5.5 2.3 2 5.3 5.8 6.8 8.5 1.5 2.7 3.4 8.1 4.4 11.9 1.1 4.8 1.6 10.7 1.4 30.5l7.2 3.5c4 1.9 10 5.6 13.2 8.2 3.3 2.7 7.9 7.2 10.3 10.1 2.7 3.2 4.9 7.4 6 11 0.9 3.1 1.7 7.5 1.7 9.7 0 2.2-0.8 6.5-1.7 9.5-0.9 3-3.4 7.7-5.4 10.5-2.1 2.7-6.5 7.1-9.8 9.7-3.3 2.7-9.4 6.6-21 12.7v12.8c0 10.5-0.5 14.2-2.3 20.3-1.3 4.1-3.9 9.6-5.8 12.3-1.9 2.6-5.3 6.1-7.7 7.7-2.3 1.7-6.7 3.8-9.7 4.6-3.5 1.1-7.6 1.4-11.5 1.1-3.3-0.2-8.9-1.5-12.5-2.7-3.6-1.2-9.6-4-13.3-6.3-3.8-2.3-7.9-4.8-9-5.6-2-1.3-2.7-1.1-8.7 2.9-3.6 2.4-9.2 5.6-12.5 7.1-3.3 1.4-8.5 3.2-11.5 3.9-3.3 0.8-8.1 1-12 0.7-3.8-0.4-8.5-1.6-11.5-3.1-2.8-1.3-6.7-4.3-8.8-6.5-2-2.3-4.6-5.8-5.6-7.8-1-2.1-2.7-6.7-3.7-10.3-1.2-4.5-1.8-10.2-1.9-31.1l-7-3.7c-3.8-2.1-9-5.1-11.5-6.8-2.5-1.7-6.7-5.5-9.4-8.5-2.7-3-5.7-7.2-6.7-9.4-1-2.2-2.3-6.2-2.9-9-0.8-3.7-0.8-6.4 0.1-10.5 0.6-3 2.1-7.3 3.2-9.5 1.1-2.2 4.3-6.4 7.1-9.4 2.8-3 8-7.3 11.6-9.7 3.6-2.3 8.6-5.2 16-8.4l-0.6-9.2c-0.5-6.7-0.2-11.7 1-17.8 0.9-4.7 2.7-10.7 4-13.5 1.3-2.7 4.8-7.2 7.8-10 3.3-3.1 7.3-5.7 10.3-6.7 2.8-0.9 7.7-1.7 11-1.8z"/>
		<path fill="#6ccbf9" d="m217.5 168.3c5.5 0.3 8.6 1.1 14.5 4 4.1 2 11.1 6.4 23.5 16.3l7-5.8c3.9-3.3 10.6-7.7 15-10 5.9-3 9.6-4.2 14-4.6 3.3-0.3 7.2-0.2 8.8 0.2 1.5 0.3 4.3 2.1 6.3 3.8 2 1.9 4.3 5.5 5.4 8.3 1 2.7 2.1 8.1 2.5 12 0.4 3.8 0.2 10.6-0.4 15-0.5 4.4-1.3 9.3-1.6 11-0.6 2.9-0.5 3.1 4.7 4.9 2.9 1.1 8.9 3.7 13.3 5.9 5.4 2.7 10 6 14.1 10.1 4.6 4.5 6.5 7.3 7.4 10.6 0.9 3.6 0.9 5.4-0.1 9-0.9 3.3-2.9 6.1-7.3 10.5-3.6 3.6-9 7.5-13.1 9.7-3.9 2-9.8 4.6-13.3 5.9-4.5 1.7-6.1 2.8-5.8 3.9 0.3 0.8 1 5.3 1.7 10 0.6 4.7 1 12.1 0.7 16.5-0.3 5.1-1.3 9.8-2.7 13-1.2 2.7-3.2 6.1-4.4 7.4-1.2 1.3-3.7 3-5.5 3.7-1.7 0.8-5 1.4-7.2 1.4-2.2 0-6.8-0.9-10.3-2.1-3.4-1.2-9.8-4.5-14.2-7.4-4.4-3-9.6-6.7-15-11.2l-8 6.4c-4.4 3.5-11.4 8-15.5 10-4.7 2.3-9.6 3.8-13 4.1-3 0.3-6.7 0.2-8.3-0.2-1.5-0.3-4.1-1.8-5.8-3.4-1.8-1.5-4-4.4-5-6.5-1.1-2-2.4-7.2-3.1-11.5-0.9-5.9-0.9-10 0-17.7 0.7-5.5 1.5-10.9 1.8-12 0.5-1.7-0.4-2.3-5.8-4.4-3.5-1.3-9.4-4-13.3-6-3.8-2-9.3-5.9-12.3-8.6-2.9-2.8-6.2-6.8-7.3-9-1-2.2-1.9-5.4-1.9-7 0-1.7 0.9-4.9 2-7.3 1.1-2.3 4.1-6.3 6.8-8.8 2.8-2.7 8.7-6.5 14.7-9.5 5.5-2.8 11.7-5.5 13.8-6.2 2.6-0.8 3.6-1.7 3.3-2.7-0.3-0.8-1-4.4-1.6-8-0.5-3.6-1-9.9-1-14 0-4.1 0.7-10.2 1.5-13.5 0.9-3.3 2.6-7.4 3.8-9.2 1.2-1.8 3.8-4.1 5.7-5.3 2.9-1.7 4.8-2 10.5-1.7z"/>
		<path fill="#1394d7" d="m294 176.1c0.3-0.1 2 0.3 3.8 0.9 2.3 0.7 3.8 2.2 5.3 5.3 1.6 3 2.3 6.6 2.6 12.7 0.2 4.7-0.2 11.9-0.9 16-1.1 6.5-1.6 7.5-3.3 7.4-1.1-0.1-6.9-1-12.8-2-10.4-1.8-11-2.1-13.5-5.4-1.4-1.9-5.1-6.4-13.7-16.2l3.5-3c1.9-1.6 6.2-4.7 9.5-7 3.3-2.3 7.6-4.8 9.5-5.6 1.9-0.8 4.9-1.8 6.5-2.2 1.6-0.5 3.2-0.8 3.5-0.9zm-77.6 0.9c3.4 0 7 0.9 10.6 2.6 3 1.4 7.5 4 10 5.7 2.5 1.7 6.2 4.6 12 9.7l-5.1 5.8c-2.9 3.1-6.4 7.5-8 9.7-2.8 3.9-3 4-13.1 5.8-5.7 0.9-11.4 2-12.8 2.3-2.4 0.6-2.6 0.3-3.7-5.8-0.7-3.4-1.3-9.9-1.3-14.3 0-4.4 0.7-10.2 1.5-13 0.8-2.7 2.3-5.8 3.2-6.7 1.1-1.3 3.1-1.8 6.7-1.8zm38.5 25c0.3 0 2.2 1.7 4.1 3.7 2 2.1 4.5 4.8 7.5 8.4l-10.3-0.1c-6.4 0-10.3-0.4-10.4-1.1-0.1-0.6 1.8-3.3 4.1-6 2.4-2.7 4.7-4.9 5-4.9zm18.1 21l5 7.8c2.8 4.2 6.9 11.3 13.4 23.7l-4.8 9c-2.7 4.9-6.8 12-13.6 22.5h-35l-3.9-5.7c-2.1-3.2-6.2-10.3-14.4-25.8l3.2-6.5c1.8-3.6 5.3-9.9 7.8-14 2.6-4.1 5.3-8.3 6.1-9.2 1.3-1.6 3.6-1.8 36.2-1.8zm-49.8 2.1c1 0 1.8 0.1 1.8 0.4 0 0.3-2.2 4.4-4.9 9.3-4.3 7.6-5 8.4-5.9 6.7-0.5-1.1-1.7-4.4-2.7-7.3-1-2.9-1.5-5.6-1.1-6 0.4-0.4 3.1-1.2 5.9-1.8 2.9-0.7 6-1.2 6.9-1.3zm63.6-0.1c0.9 0.1 4.4 0.6 7.7 1.3 3.3 0.7 6 1.7 6 2.2 0 0.6-0.9 3.8-2 7.3-1.1 3.4-2.2 6.3-2.5 6.3-0.3 0-2.8-3.9-5.7-8.6-3.9-6.5-4.8-8.5-3.5-8.5zm-86.2 5.3c0.1 0.1 1.8 4.5 3.7 9.7 1.9 5.2 3.9 10.5 4.5 11.8 1 1.8 0.6 3.7-2.4 11.5-2 5-3.9 10.5-4.2 12-0.6 2.6-1 2.8-3.7 2.3-1.7-0.3-7.1-2.6-12-5-4.9-2.5-10.8-6-13-7.9-2.2-1.8-4.6-4.7-5.3-6.3-0.8-1.6-1.1-4.1-0.8-5.6 0.3-1.6 1.8-4.2 3.3-6 1.6-1.7 5.3-4.7 8.3-6.7 3-1.9 9.1-4.9 13.4-6.7 4.4-1.8 8.1-3.1 8.2-3.1zm117.6 3c4.5 1.8 11 5.1 14.2 7.2 3.3 2.2 7 5.2 8.3 6.8 1.2 1.5 2.6 3.9 2.9 5.5 0.5 1.8 0 3.9-1.2 6.1-1.1 1.9-4.2 5.1-6.9 7.2-2.8 2.1-8.5 5.4-12.8 7.3-4.2 2-9.1 3.9-10.7 4.4-2.5 0.6-3 0.4-3-1 0-1-1.8-6.4-8-22.3l4.1-11c2.2-6.1 4.2-11.5 4.4-12.2 0.2-0.8 2.9-0.2 8.7 2zm-98 41.1c2.6 4.7 4.7 8.8 4.5 9.1-0.1 0.3-3.4-0.2-7.2-1-3.8-0.8-7.1-1.6-7.2-1.7-0.2-0.2 0.4-2.8 1.3-5.8 0.9-3 2.1-6.3 2.7-7.3 0.9-1.7 1.7-0.8 5.9 6.7zm75.9-7.7c0.4 0.4 1.7 3.7 2.8 7.3 1.6 5 1.8 6.7 0.8 7.2-0.6 0.4-3.2 1-5.7 1.3-2.5 0.3-5.3 0.8-6.3 1.1-0.9 0.2-1.7 0.1-1.7-0.3 0-0.5 2.1-4.5 4.7-9.1 2.6-4.6 5.1-7.9 5.4-7.5zm-87.7 23.3c0.6 0 4.2 0.6 8.1 1.4 3.8 0.8 9 1.7 11.5 2 4.2 0.6 5 1.2 21 20.6l-3.8 3.3c-2 1.8-5.7 4.7-8.2 6.4-2.5 1.7-7 4.3-10 5.7-3.5 1.6-7.2 2.6-10.3 2.6-3.9 0-5.1-0.5-7.2-2.7-1.4-1.6-3-4.9-3.5-7.5-0.6-2.7-1-7.7-1-11.3 0-3.6 0.5-9.6 1.1-13.5 0.6-3.9 1.7-7 2.3-7zm93.1 0.1c1.7-0.1 2.2 0.9 3.3 6.9 0.6 3.8 1.2 9.9 1.2 13.5 0 3.6-0.4 8.6-1 11.3-0.5 2.6-2.1 5.9-3.5 7.5-1.9 2.1-3.4 2.7-6.5 2.7-2.2 0-6.1-0.8-8.8-1.8-2.6-1-7.2-3.4-10.2-5.4-3-2-7.4-5.3-14-10.8l7.6-9.2c4.2-5.1 7.9-9.6 8.3-10 0.3-0.4 5.3-1.6 11.1-2.6 5.8-1.1 11.4-2 12.5-2.1zm-56.8 4.9l21.8-0.1-2 2.3c-1 1.3-3.5 4-9 9.8l-2.3-2.3c-1.3-1.2-3.8-3.9-5.5-5.9z"/>
		<path fill="#6ccbf9" d="m254.5 236c1.1 0 3.7 0.5 5.8 1 2 0.6 5.1 2.2 6.8 3.8 1.8 1.5 3.8 3.9 4.5 5.5 0.8 1.5 1.4 5 1.4 7.7 0 2.8-0.8 6.7-1.7 8.7-1 2-3.2 4.7-4.8 6-1.6 1.3-4.8 2.7-7 3.3-2.5 0.5-5.5 0.5-8 0-2.2-0.5-5.1-1.8-6.5-2.8-1.4-1-3.4-3.2-4.5-4.8-1.2-1.6-2.4-4.6-2.8-6.6-0.4-2.1-0.3-5.6 0.3-7.8 0.6-2.2 2.2-5.4 3.8-7.2 1.5-1.7 4.5-4 6.7-4.9 2.2-1 4.9-1.9 6-1.9z"/>
	</g>
</svg>