<svg version="1.2" xmlns="http://www.w3.org/2000/svg" viewBox="0 0 768 218" width="768" height="218">
	<title>react-flatify</title>
	<style>
		.s0 { fill: #1586ba } 
		.s1 { fill: #6ccbf9 } 
		.s2 { fill: #1896d1 } 
		.s3 { fill: #1394d7 } 
		.s4 { fill: #ffffff } 
		.s5 { fill: #1cb0f6 } 
	</style>
	<g id="Background">
		<path id="Path 0" class="s0" d="m125 7.5c10.4 0.2 15.7 0.8 23 2.8 5.2 1.3 12.9 4 17 5.9 4.1 1.9 10.4 5.4 14 7.8 3.6 2.4 10 7.8 14.3 11.9 4.4 4.2 10.3 11.2 13.2 15.6 3 4.4 6.8 11.1 8.5 15 1.8 3.8 4.4 11.3 5.8 16.5 2.4 8.4 2.7 11.3 2.7 25.5 0 13.5-0.4 17.4-2.3 25-1.3 4.9-4.8 13.9-7.7 20-3.2 6.5-8 14.4-11.9 19.3-3.6 4.5-10.1 11-14.3 14.3-4.3 3.4-10.7 7.9-14.3 10-3.6 2.1-10.1 5.2-14.5 6.8-4.4 1.6-11.8 3.7-16.5 4.6-6.7 1.4-11.6 1.6-23 1.2-10.4-0.4-16.8-1.1-22.5-2.7-4.4-1.2-11.6-3.8-16-5.9-4.4-2-10.9-5.7-14.5-8.1-3.6-2.4-9.8-7.5-13.8-11.4-4-3.9-9.5-10.3-12.1-14.1-2.7-3.8-6.5-10.3-8.5-14.3-2-3.9-4.8-11.1-6.2-15.9-2.3-7.5-2.7-11.2-3.1-25.3-0.5-15.3-0.3-17.3 2.1-27.5 1.7-7.2 4.3-14.4 7.6-21 2.7-5.5 7.9-13.7 11.5-18.3 3.6-4.5 9.3-10.5 12.8-13.4 3.4-2.8 9.4-7.2 13.2-9.7 3.8-2.4 9.9-5.7 13.5-7.1 3.6-1.5 10.3-3.7 15-4.8 4.7-1.2 9.6-2.3 11-2.6 1.4-0.2 8.6-0.3 16-0.1z"/>
		<path id="Path 1" class="s1" d="m21.7 104.5c0.2 2.8 0.2 6.8 0 9-0.2 2.2-0.3 0-0.3-5 0-5 0.1-6.8 0.3-4z"/>
		<path id="Path 2" fill-rule="evenodd" class="s2" d="m264.5 10h171l5 2.3c2.8 1.3 6.4 3.9 8 5.9 1.6 2 3.6 5.3 4.2 7.4 0.8 2.6 1.3 11.1 1.3 25.1 0 15.5-0.4 22.2-1.3 24.5-0.8 1.8-2.9 5.1-4.8 7.2-1.9 2.1-5.3 4.7-7.7 5.8-4 1.7-8.7 1.8-90.2 1.8-81.5 0-86.2-0.1-90.3-1.8-2.3-1.1-5.7-3.7-7.6-5.8-1.9-2.1-4-5.4-4.8-7.2-0.9-2.3-1.3-9.2-1.3-25 0-16.4 0.3-22.6 1.4-25.2 0.7-1.9 2.7-5 4.2-6.9 1.6-1.9 5.1-4.5 7.9-5.8zm-139 3.5c9.2 0.2 16.2 0.9 20.5 2.1 3.6 0.9 9.9 3.1 14 4.9 4.1 1.7 10.9 5.3 15 8 4.1 2.6 10.9 8.2 15.1 12.4 4.2 4.2 9.8 11 12.5 15.1 2.6 4.1 6 10.3 7.6 13.8 1.5 3.4 3.8 9.9 5 14.5 2 7 2.3 10.7 2.3 24.7 0 14.3-0.3 17.6-2.3 24.5-1.3 4.4-4.1 11.8-6.3 16.5-2.2 4.7-6 11.2-8.4 14.5-2.3 3.3-7.6 9.2-11.6 13.1-4.1 3.9-10.8 9.3-14.9 12-4.1 2.6-10.7 6.1-14.5 7.7-3.8 1.5-10.8 3.8-15.5 4.9-6.1 1.5-11.9 2.1-20.5 2.1-6.6 0.1-14.7-0.5-18-1.2-3.3-0.6-8.9-2.1-12.5-3.3-3.6-1.1-9.2-3.4-12.5-5.1-3.3-1.6-8.7-4.8-12-7-3.3-2.2-9.2-7.2-13.1-11.1-3.9-3.9-9-10-11.4-13.6-2.4-3.6-6.1-10.1-8.1-14.5-2.1-4.4-4.8-12-6.1-17-1.8-7.4-2.2-11.5-2.2-23.5 0.1-11.5 0.6-16.1 2.3-22.5 1.2-4.4 3.6-11.4 5.4-15.5 1.8-4.1 5.4-10.6 7.9-14.5 2.6-3.8 7.6-9.9 11-13.4 3.5-3.6 9-8.5 12.3-10.9 3.3-2.4 9.4-6.1 13.5-8.2 4.1-2.1 10.7-4.7 14.5-5.9 3.8-1.2 9.2-2.6 12-3.1 2.7-0.5 11.3-0.7 19-0.5zm192.3 107.4c1.3 0.4 2.9 1.2 3.6 2 0.7 1 1.3 10.8 1.6 29.2 0.3 16.5 0.9 28.2 1.5 28.8 0.5 0.5 3 1.1 10 1.6l0.2 4.3c0.3 3.7-0.1 4.4-2.5 5.9-1.9 1.2-4.2 1.5-7.9 1.2-3-0.2-6.3-1.2-7.8-2.4-1.5-1.1-3.7-3.3-4.9-4.8-2-2.7-2.1-4.1-2.4-31.5-0.2-15.8 0-29.7 0.5-30.8 0.4-1.2 1.8-2.6 3.2-3.1 1.4-0.5 3.6-0.7 4.9-0.4zm273.6 0.3c0.6 0.5 2.3 0.8 3.8 0.8 1.6 0 3-0.3 3.2-0.7 0.3-0.4 2.5-0.4 5 0 2.5 0.4 6.7 1.7 9.3 3 2.5 1.2 5.1 3.1 5.6 4.2 0.5 1.1 0.6 3.3 0.3 4.8-0.3 1.5-1.7 3.3-3.1 4-2.2 1.1-3.2 0.9-7.3-1.2q-4.7-2.5-11.2-2.9c-5.1-0.3-7.5 0-11.3 1.7-3 1.3-5.6 3.5-7.2 5.9-1.4 2-3 6.4-3.6 9.7-0.8 4.4-0.8 7.7 0 12.5 0.6 3.7 2.2 8.2 3.6 10.3 1.5 2.1 4.3 4.6 6.7 5.7 2.8 1.3 6.4 2 10.3 2 3.3-0.1 7.6-0.7 9.5-1.4 1.9-0.8 4.9-2 6.7-2.7 2.9-1.3 3.4-1.2 5.3 0.6 1.1 1.1 2.1 3.2 2 4.8 0 1.7-1.1 3.7-2.8 5.2-1.5 1.4-4.7 3.3-7.2 4.1-2.5 0.8-7.4 1.8-11 2.1-4.4 0.4-8.5 0-12.8-1.1-3.4-0.9-7.9-2.6-10-3.9-2-1.3-5.2-4.1-7.1-6.3-1.9-2.1-4.4-5.9-5.5-8.4-1.8-3.8-2.1-6.4-2.1-17 0-10.5 0.3-13.2 2.1-17 1.1-2.5 3.8-6.4 6-8.9 2.1-2.4 6.1-5.5 8.9-6.8 2.7-1.4 6.8-2.8 8.9-3.2 2.2-0.4 4.5-0.3 5 0.1zm62.1 0c0.5 0.5 2.2 0.8 3.7 0.8 1.6 0 3-0.4 3.3-1 0.3-0.6 2.3-0.5 5.7 0.3 2.9 0.8 7.1 2.3 9.3 3.4 2.2 1.1 4.3 2.8 4.7 3.7 0.5 0.9 0.8 2.4 0.8 3.4 0.1 0.9-0.7 2.5-1.7 3.5-1.2 1.2-2.7 1.7-4.3 1.4-1.4-0.3-5-1.5-8-2.6-3-1.1-7.1-2-9-2-1.9-0.1-5.2 0.4-7.3 0.9-2 0.6-4.6 2-5.7 3.3-1.2 1.3-2 3.6-2.1 5.7 0 2.1 0.8 4.2 1.8 5.2 1 1 4.9 2.5 8.8 3.4 3.8 0.9 10.1 2.5 14 3.6 5.4 1.6 7.9 3 11.1 6.2 2.9 2.9 4.4 5.3 4.8 8.1 0.4 2.3 0.2 6-0.4 8.5-0.8 3.2-2.6 5.9-5.8 9-2.9 2.8-6.4 5.1-9.2 5.9-2.5 0.7-6.8 1.6-9.5 1.9-2.8 0.2-8.2 0-12-0.7-3.9-0.6-9.4-2.3-12.3-3.6-4-1.9-5.3-3.1-5.8-5.2-0.3-1.5-0.3-3.8 0-5 0.3-1.3 1.6-2.5 2.8-2.9 1.4-0.3 4.6 0.5 8.3 2.2 3.6 1.6 8.6 2.9 12.5 3.2 4.7 0.4 7.8 0.1 11-1.1 3.1-1.1 4.9-2.5 5.8-4.4 0.8-1.5 1.1-3.8 0.8-5-0.3-1.3-1.6-2.9-2.9-3.7-1.2-0.9-7.3-2.7-13.5-4-6.1-1.4-12.4-3.2-14-4-1.5-0.8-3.9-2.7-5.4-4.2-1.5-1.6-3.2-4.1-3.7-5.6-0.6-1.5-1.1-4.9-1.1-7.5 0-3.1 0.8-6.4 2.3-9.3 1.3-2.5 4.1-5.7 6.3-7.3 2.1-1.5 6.4-3.4 9.4-4.1 3.1-0.7 5.9-0.9 6.5-0.4zm65 0c0.5 0.4 2.2 0.8 3.7 0.8 1.6 0 3-0.4 3.3-1 0.3-0.6 2.3-0.5 5.7 0.3 2.9 0.8 7.2 2.4 9.5 3.5 3 1.6 4.5 3 4.9 5 0.4 1.5 0.2 3.4-0.3 4.2-0.6 0.8-1.8 2-2.7 2.5-1.1 0.7-2.6 0.6-4.8-0.4-1.8-0.7-5.8-2-8.8-2.9-3.6-1-7.1-1.3-10.3-0.8-2.8 0.4-5.9 1.6-7.7 3.1-2.3 2-3 3.3-3 6.3-0.1 2.3 0.6 4.4 1.7 5.4 1 1 4.9 2.5 8.8 3.4 3.8 0.9 10 2.5 13.7 3.5 4.8 1.4 8 3 10.9 5.7 2.9 2.7 4.3 5 5 8.2 0.5 2.5 0.7 5.9 0.3 7.5-0.3 1.7-1.6 4.7-2.8 6.8-1.1 2.1-3.7 4.9-5.6 6.2-1.9 1.4-6.4 3.2-10 4.1-4.6 1.2-8.5 1.5-13.5 1.1-3.9-0.4-9.4-1.3-12.3-2.2-2.8-0.8-6.6-2.6-8.2-4-2.1-1.7-3-3.4-3-5.5 0-1.6 0.7-3.7 1.6-4.5 0.8-0.8 2.1-1.5 2.7-1.5 0.7 0 3.9 1.2 7.2 2.7 5 2.2 7.5 2.7 14.6 2.7 5.9 0.1 9.4-0.4 11.2-1.4 1.5-0.8 3.2-2.8 3.9-4.5 0.8-2.2 0.8-3.6-0.1-5.2-0.6-1.3-2.6-2.9-4.4-3.7-1.7-0.7-7-2.2-11.7-3.1-4.7-1-9.9-2.3-11.5-3-1.7-0.7-4.5-2.5-6.4-4.1-1.9-1.6-4-4.3-4.8-6.1-0.7-1.8-1.3-5.4-1.3-8 0-3.1 0.8-6.4 2.2-9.1 1.3-2.4 4.1-5.7 6.3-7.3 2.2-1.5 6.5-3.5 9.5-4.2 3.2-0.9 5.9-1.1 6.5-0.5zm-446-0.1c15.4-0.1 19.4 0.2 21.2 1.4 1.3 0.8 2.3 2.5 2.3 3.8 0 1.2-0.6 3.1-1.4 4.2-1.3 1.9-2.7 2-32.6 2.5v18h14c12.7 0 14.2 0.2 16 2 1.1 1.1 2 2.9 2 4 0 1.1-0.9 2.9-2 4-1.8 1.8-3.3 2-30 2v13c0 12.5-0.1 13.1-2.5 15.5-1.3 1.4-3.1 2.5-4 2.5-0.8 0-2.6-0.5-4-1.2-1.4-0.7-2.7-2.2-3-3.3-0.2-1.1-0.5-15.6-0.5-32.2 0-18.7 0.4-31.2 1-32.7 0.6-1.3 1.8-2.6 2.8-2.9 0.9-0.2 10.2-0.5 20.7-0.6zm175.4 0.4c4.4 0 6.4 0.5 7.1 1.5 0.5 0.8 1 2.8 1 4.3 0 1.5-0.9 3.6-2 4.7-1.3 1.3-3.3 2-5.8 2q-3.7 0-6-2.3c-1.2-1.2-2.3-3.2-2.3-4.5-0.1-1.3 0.3-3.1 0.8-4 0.7-1.4 2.3-1.8 7.2-1.7zm47.1-0.4c2.4-0.1 4 0.5 5.2 1.9 1.3 1.5 1.6 2.8 1 4.8-0.6 2.2-1.6 2.9-6.2 3.9-3 0.7-6.3 2.1-7.3 3.1-1 1-1.8 3.1-1.7 8.2h5.2c3 0 5.9 0.5 6.6 1.3 0.7 0.6 1.2 2.3 1.2 3.7 0 1.4-0.5 3.1-1.2 3.8-0.7 0.7-3.6 1.2-11.8 1.2l-0.3 18.6c-0.2 18.5-0.2 18.6-2.7 20.6-1.8 1.4-3.3 1.8-5.5 1.4-1.7-0.3-3.6-1.4-4.3-2.3-0.9-1.3-1.2-6.9-1.2-38.3h-4c-3.2 0-4.2-0.4-5.3-2.4-1-2.1-0.9-2.9 0.5-5 1.4-1.9 2.7-2.6 5.3-2.6 3.1 0 3.5-0.3 3.6-2.7 0-1.5 0.6-4.2 1.2-6 0.7-1.8 2.5-4.7 4.2-6.4 1.6-1.7 4.1-3.6 5.5-4.1 1.4-0.6 3.8-1.4 5.5-1.8 1.6-0.4 4.6-0.8 6.5-0.9zm-84.1 6.7c0.9 0.3 2.4 1.2 3.4 2.1 1.3 1.2 1.8 3.1 1.7 13.1h6.5c5.9 0 6.7 0.3 8.2 2.6 1.5 2.1 1.6 2.9 0.5 5-1.1 2.2-1.8 2.4-15.2 2.4l0.2 13c0.2 9 0.7 13.3 1.6 14.2 0.7 0.7 4.3 1.5 8 1.8 6.2 0.5 6.7 0.7 7 3 0.2 1.4 0.1 3.5-0.2 4.8-0.4 1.4-1.8 2.6-3.9 3.2-1.7 0.6-4.8 1-6.7 1-1.9 0-5.3-0.5-7.5-1.1-2.2-0.6-5.4-2.5-7.1-4.3-2.1-2.1-3.5-4.8-4.3-8.3-0.6-2.9-1.1-10.2-1.1-27.3h-4c-3 0-4.3-0.5-5-2-0.6-1.1-1-2.7-1-3.5 0-0.8 0.7-2.2 1.6-3 0.8-0.8 3.1-1.5 5-1.5 3.4 0 3.4 0 3.4-4.7 0-2.6 0.7-5.9 1.5-7.2 0.8-1.4 2.4-2.8 3.6-3.1 1.2-0.4 2.9-0.4 3.8-0.2zm-46.9 14.3c3 0 7.3 0.4 9.5 1.1 2.2 0.6 5.4 2.5 7.1 4.2 1.7 1.7 3.6 4.9 4.3 7.1 0.6 2.2 1.1 11.1 1.1 19.8 0 14.4-0.2 15.9-2 17.7-1.1 1.1-2.7 2-3.5 2-0.8 0-2.6-0.4-4-1-1.4-0.5-2.7-1.9-3-3-0.5-1.9-0.6-1.9-3.5 0.5-1.7 1.4-4.7 2.8-6.8 3.1-2 0.4-5.5 0.4-7.7 0.1-2.2-0.4-5.8-1.9-8-3.5-2.2-1.5-4.6-4.3-5.4-6.2-0.8-2-1.2-5.5-1-8.1 0.2-2.5 1.1-5.4 1.9-6.4 0.8-1 3.5-2.7 6-3.8q4.5-2 14.3-2.6c9.5-0.6 9.7-0.6 9.7-3.1 0.1-1.4-0.7-3.5-1.7-4.8-1.6-2.1-2.6-2.4-7.8-2.3-3.3 0-8.2 0.8-10.8 1.8-3.6 1.4-5.2 1.6-6.5 0.7-0.9-0.6-1.8-2.4-2-4-0.2-1.8 0.3-3.5 1.5-4.6 1-0.9 4.3-2.3 7.3-3.2 3-0.8 8-1.5 11-1.5zm-8.3 31.8c-1 0.9-1.8 2.6-1.7 3.9 0 1.2 0.9 3.1 2 4.2q2 2 6 2c3 0 4.8-0.7 7-2.7 1.9-1.7 3.3-4.2 3.8-6.5l0.7-3.8c-8.5 0.2-12.1 0.5-13.5 0.7-1.4 0.3-3.3 1.2-4.3 2.2zm92.3-31.9c1.1 0 3.1 1.1 7 5v21c0 21 0 21-2.5 23.5-1.3 1.4-3.3 2.5-4.5 2.5-1.1 0-3.1-1.1-7-5v-21c0.1-20.9 0.1-21.1 2.5-23.5 1.3-1.4 3.3-2.5 4.5-2.5zm60.5 0c1.1 0 2.8 0.6 3.8 1.3 1 0.6 4.6 8.2 8.1 16.7 5.3 13.1 6.5 15.2 7.3 13.5 0.6-1.1 3.4-7.8 6.3-15 2.8-7.1 6.2-13.8 7.3-14.8 1.2-1 3.2-1.7 4.4-1.7 1.3 0 3 0.7 3.8 1.5 0.8 0.8 1.5 2.8 1.5 4.3 0 1.5-5.8 15.7-12.8 31.6-8.7 19.8-13.5 29.5-15.2 30.9-2 1.5-3.1 1.7-5.5 1-1.8-0.6-3.4-1.9-3.9-3.4-0.6-1.8-0.1-4.1 6-17.4l-8.8-20.2c-4.8-11.2-8.9-21.4-8.9-22.7-0.1-1.6 0.7-3 2.2-4 1.3-0.9 3.3-1.6 4.4-1.6z"/>
		<path id="Path 3" class="s3" d="m594.9 120c2.4 0 3.9 0.4 3.6 1-0.3 0.5-1.9 1-3.5 1-1.6 0-3.3-0.5-3.6-1-0.4-0.6 1-1 3.5-1zm62 0c2.4 0 3.9 0.4 3.6 1-0.3 0.5-1.9 1-3.5 1-1.6 0-3.3-0.5-3.6-1-0.4-0.6 1-1 3.5-1zm65 0c2.4 0 3.9 0.4 3.6 1-0.3 0.5-1.9 1-3.5 1-1.6 0-3.3-0.5-3.6-1-0.4-0.6 1-1 3.5-1zm-472.7 5.8c0.5 0.4 0.7 14.6 0.3 62.7l-0.5-31.7c-0.3-17.4-0.2-31.4 0.2-31z"/>
		<path id="Path 4" class="s0" d="m121.8 47.1c14.5-0.1 26.3 0.4 29.5 1 2.8 0.6 7.2 2.1 9.7 3.3 2.4 1.1 6.7 4.2 9.5 6.7 2.7 2.5 6.2 6.5 7.7 9 1.4 2.4 3.4 7.3 4.3 10.9 1.4 5.5 1.6 10.6 1.3 33.5-0.3 22.6-0.7 27.7-2.1 31.5-1 2.5-3.4 6.9-5.5 9.9-2 3-6.2 7.1-9.2 9.3-3 2.1-8.4 4.8-12 5.9-5.7 1.7-9.4 1.9-32 1.9-19.8 0-26.8-0.3-31.5-1.5-3.3-0.9-8-2.9-10.5-4.5-2.5-1.5-6.4-4.9-8.7-7.4-2.4-2.5-5.3-6.5-6.4-8.9-1.2-2.3-2.8-7.1-3.5-10.7q-1.4-6.5-1.4-28.5 0-22 1.4-28.5c0.7-3.6 2.3-8.3 3.4-10.5 1.1-2.2 4-6.3 6.4-9 2.5-2.8 6.9-6.3 9.9-7.9 3-1.7 7.7-3.5 10.4-4.2 3.2-0.8 13.9-1.3 29.3-1.3z"/>
		<path id="Path 5" class="s4" d="m282.1 26.1c9.9 0.3 12.2 0.7 14.6 2.5 1.5 1.1 3.6 3.6 4.6 5.5 1.2 2.3 1.6 4.6 1.2 7.1-0.3 2.1-1.1 4.7-1.8 5.8-0.6 1.1-3 2.9-5.2 3.9-3.9 1.9-3.9 2-1.8 3 1.4 0.7 4 4.5 6.5 9.6 3.6 7.2 4.1 8.7 2.8 9.4-0.8 0.5-2 0.8-2.5 0.5-0.6-0.2-3-4-5.5-8.5-2.5-4.4-5.3-8.8-6.4-9.8-1.2-1-4-1.7-14.6-2.1v10c0 7.1-0.4 10.1-1.3 10.4-0.6 0.2-1.9 0-2.7-0.4-1.2-0.8-1.6-4.6-1.9-21.9-0.4-16.5-0.2-21.5 0.9-23.2 1.2-2 1.9-2.1 13.1-1.8zm135.4 5.1c1.6 0.2 2 1.1 2.5 9.8h5c4.2 0 5 0.3 4.7 1.7-0.2 1.4-1.3 1.9-9.7 2.3v10.2c0 8.4 0.4 10.6 1.8 12.1 1 1.1 3.1 1.8 5.4 1.7 3.1 0 3.8 0.3 3.8 2 0 1.5-0.9 2.2-3.3 2.6-1.9 0.3-4.7 0-7-1-2.5-1.1-4.2-2.7-5.2-5.1-1-2.3-1.5-6.8-1.5-22.5h-3c-2.3 0-3-0.4-3-2 0-1.6 0.7-2 3-2 2.9 0 3-0.1 2.8-4.3-0.1-2.4 0.3-4.7 0.7-5.1 0.5-0.4 1.8-0.6 3-0.4zm-90.5 9.3c1.9 0.3 4.5 1.2 5.7 2 1.3 0.8 3.1 2.7 4 4.2 1 1.6 1.8 4.6 1.8 10.8l-11.8 0.2c-9.6 0.3-11.7 0.6-11.7 1.8 0 0.8 0.7 2.8 1.5 4.5 0.8 1.7 2.4 3.4 3.5 4 1.1 0.5 3.9 1 6.2 1 2.4 0 5.6-0.7 7.3-1.5 1.6-0.9 3.3-1.5 3.7-1.5 0.5 0 0.8 0.9 0.8 2 0 1.2-1.2 2.6-3.3 3.7-1.9 1-5.4 1.7-8.7 1.7-3.8 0-6.6-0.7-9-2.1-1.9-1.2-4.1-3.1-4.8-4.2-0.6-1.2-1.6-3.8-2.1-5.9-0.5-2.1-0.5-5.6 0-8.2 0.5-2.5 1.9-5.8 3.2-7.3 1.2-1.5 4-3.4 6.2-4.2 2.2-0.8 5.6-1.3 7.5-1zm32.5-0.4c1.6-0.1 4.6 0.7 6.5 1.7 1.9 0.9 4 2.8 4.7 4.2 0.8 1.6 1.3 7 1.3 14.7 0 9-0.3 12.4-1.3 12.7-0.6 0.1-1.8 0.1-2.5 0-0.6-0.2-1.2-1.6-1.2-5.9l-1.5 2.2c-0.8 1.3-3.2 2.7-5.3 3.3-2 0.5-4.8 0.7-6.2 0.3-1.4-0.3-3.5-1.3-4.8-2.2-1.3-0.9-2.7-2.9-3.3-4.6-0.6-1.8-0.6-4-0.1-5.5 0.5-1.4 1.6-3.1 2.3-3.8 0.8-0.7 4.8-1.7 8.9-2.2 4.1-0.5 8.2-0.9 9-0.9 1.2 0 1.3-0.7 0.7-3.3-0.4-1.8-1.3-3.9-2-4.7-0.9-1-2.7-1.2-6.7-0.8-3 0.3-6.7 0.8-8.3 1.1-2 0.5-2.7 0.2-2.7-0.9 0-0.8 1-2 2.2-2.7 1.3-0.6 3.4-1.5 4.8-1.9 1.4-0.4 3.8-0.8 5.5-0.8zm38 0.5c2.2 0.3 5 1.2 6.2 2 1.3 0.7 2.3 2.1 2.3 2.9 0 1.1-0.7 1.3-2.8 0.9-1.5-0.3-4.5-0.8-6.7-1.1-2.4-0.3-4.9 0.1-6.2 0.9-1.3 0.7-2.7 2.3-3.3 3.5-0.5 1.3-1 4.8-1 7.8 0 4.8 0.4 5.9 3 8.5 2.2 2.2 3.9 3 6.5 3 1.9 0 4.7-0.7 6.2-1.5 1.6-0.8 3.1-1.1 3.6-0.7 0.4 0.4 0.7 1.3 0.7 1.9 0 0.7-2.1 2.2-4.8 3.4-4.1 1.8-5.3 1.9-9.2 1-2.5-0.6-5.7-2.3-7.2-3.9-1.5-1.5-3.2-3.9-3.7-5.5-0.6-1.5-1.1-4.6-1.1-7 0-2.3 0.9-6.1 2-8.5 1.1-2.3 3-4.7 4.2-5.4 1.3-0.6 3.4-1.5 4.8-1.9 1.4-0.5 4.3-0.6 6.5-0.3z"/>
		<path id="Path 6" class="s2" d="m274 31h8c4.7 0 9.1 0.6 10.8 1.4 1.5 0.7 3 2.1 3.4 3 0.5 0.9 0.8 3.1 0.8 4.8 0 1.8-0.6 4-1.3 4.9-0.7 0.9-2.2 2.1-3.5 2.7-1.2 0.7-5.8 1.2-18.2 1.2v-9zm51.9 13.4c2.1 0.3 4.6 1.6 5.8 3.1 1.3 1.4 2.3 3.6 2.3 5 0 2.5 0 2.5-19 2.5l0.5-2.8c0.3-1.5 2-4 3.7-5.6 2.6-2.3 3.7-2.7 6.7-2.2zm41.1 13.6l-0.6 3.2c-0.3 1.8-1.6 4.3-2.8 5.6-1.1 1.2-3 2.3-4.1 2.5-1.1 0.1-3.2-0.1-4.8-0.5-1.6-0.5-3-1.7-3.3-3.1-0.4-1.2-0.3-3 0.2-4 0.4-0.9 1.7-2.2 2.8-2.7 1.2-0.5 4.5-0.9 12.6-1zm-301.3 39c0.2 5.8 0.2 15.7 0 22-0.1 6.3-0.3 1.6-0.3-10.5 0-12.1 0.2-17.3 0.3-11.5z"/>
		<path id="Path 7" class="s5" d="m125.5 52.4c23.7 0.2 25.3 0.4 31 2.6 4.1 1.6 7.7 4.1 11.6 7.9 3.8 3.8 6.3 7.5 7.9 11.6 2.2 5.6 2.4 7.5 2.8 30 0.2 15.4-0.1 26.3-0.8 30.5-0.6 3.6-2.4 8.7-3.8 11.4-1.5 2.7-4.7 6.7-7.2 8.9-2.5 2.3-7 5.3-10 6.7-5.4 2.4-6.1 2.5-31 2.8-17.4 0.3-27.2 0-31-0.8-3-0.7-7.1-2-9-3-1.9-1-5.3-3.4-7.5-5.3-2.2-1.8-5.6-6.3-11-16.2v-61l2.5-5.5c1.5-3 4.5-7.4 6.8-9.8 2.3-2.3 6.6-5.4 9.5-6.8 2.8-1.5 7.2-3 9.7-3.5 2.5-0.4 15.8-0.7 29.5-0.5z"/>
		<path id="Path 8" class="s3" d="m105.8 66c3.3 0 6.5 0.9 16.7 6l5.8-3c4-2.1 7.1-3 10.5-3 2.9 0 5.9 0.7 8 2 1.7 1.1 3.9 3.5 4.9 5.3 0.9 1.7 1.9 6.5 2.2 10.4 0.6 6.9 0.8 7.4 3.5 8.5 1.7 0.7 4.9 3.2 7.3 5.5 2.6 2.6 4.5 5.6 4.9 7.5 0.3 1.8 0.1 5-0.5 7-0.6 2.1-2.6 5.2-4.3 6.9-1.8 1.8-4.9 4-6.8 4.9-3.4 1.7-3.5 1.9-4.1 9.1-0.3 4.1-1.3 8.9-2.2 10.6-1 1.8-2.7 4-3.9 4.8-1.3 0.8-3.9 1.8-5.8 2.1-1.9 0.3-5.3 0.1-7.5-0.5-2.2-0.5-5.7-2.2-11.5-6.1l-5.2 3.2c-3.7 2.4-6.6 3.4-10.2 3.6-3.8 0.2-5.9-0.2-8.3-1.7-1.8-1.2-4.2-4-5.3-6.4-1.2-2.6-2-6.4-2-16.2l-5.2-3c-2.8-1.7-6.4-4.8-8-7-2-2.9-2.8-5.1-2.8-8 0-2.2 0.9-5.5 2-7.3 1.1-1.7 3.9-4.6 6.3-6.2 2.3-1.7 5-3.3 6-3.5 1.4-0.4 1.7-1.7 1.7-7 0-3.6 0.6-8 1.3-9.8 0.8-1.7 2.8-4.4 4.6-6 2.5-2.1 4.3-2.7 7.9-2.7z"/>
		<path id="Path 9" class="s1" d="m106 72c1.7 0 5.1 1.1 7.8 2.4 2.6 1.3 5.4 3.1 6.2 4 0.8 0.9 1.8 1.7 2.3 1.6 0.4 0 3.1-1.6 6-3.6 2.8-1.9 6.1-3.8 7.2-4 1.1-0.3 3.3-0.4 4.9-0.2 1.8 0.2 3.7 1.4 5 3.1 1.7 2.4 2.1 4.3 2.1 19.6l4 1.5c2.2 0.8 5.7 3 7.7 4.8 2.1 1.8 4 4.4 4.3 5.8 0.3 1.5-0.2 3.7-1.3 5.5-1.1 1.8-4.5 4.4-15.2 10l0.6 6.5c0.5 4.8 0.2 7.5-1 10.2-0.9 2.1-2.7 4.4-4.1 5-2 1-3.4 1-6.3 0.1-2-0.6-5.8-2.8-13.2-8.3l-4.8 3.6c-2.6 1.9-6.4 4.1-8.5 4.7-3.2 1-4.3 0.9-6.5-0.3-1.5-0.9-3.3-2.7-4-4-0.8-1.6-1.2-5.3-0.7-17.8l-5.5-2.5c-3-1.4-6.7-3.9-8.3-5.6-1.5-1.7-2.7-4.2-2.7-5.6 0-1.4 1.3-4 2.8-5.8 1.6-1.7 5.4-4.3 14-8.2l-0.4-5.7c-0.3-3.1-0.2-7.2 0.1-9.2 0.3-2 1.4-4.5 2.5-5.6 1.1-1.1 3.3-2 5-2z"/>
		<path id="Path 10" class="s3" d="m107 76c1.4 0 4.6 1.3 7.3 3 2.6 1.6 4.9 3.3 5.1 3.8 0.3 0.4-1.2 2.6-3.2 4.9-3.2 3.6-4.5 4.4-14.2 5.8l-0.2-7.5c-0.1-5.5 0.2-7.9 1.2-8.8 0.8-0.7 2.5-1.2 4-1.2zm31.8 0c2.2 0 3.5 0.6 4.2 2 0.6 1.1 1 4.4 1 7.3 0 2.8-0.4 5.8-0.8 6.5-0.5 1-2 1.1-5.7 0.6-4-0.5-5.6-1.4-8.2-4.3-1.8-2-3.2-4.1-3.2-4.6-0.1-0.5 2.1-2.5 4.7-4.3 2.9-2 5.9-3.2 7.9-3.2zm-16 10c0.3 0 1.5 1.1 4.8 5.1l-8.5-0.1 1.6-2.5c0.9-1.4 1.8-2.5 2.1-2.5zm-7.4 9h7.4c6.8 0 7.4 0.2 9.2 2.8 1 1.5 2.8 4.5 6 10.7l-3 5.5c-1.6 3-3.7 6.1-4.7 6.8-0.9 0.7-4.4 1.2-7.7 1.2-4.5 0.1-6.4-0.4-7.6-1.7-0.9-1-2.8-3.9-4.3-6.5-1.4-2.7-2.4-5.6-2.1-6.5 0.4-1 2-4.2 3.7-7zm-7.1 1.1c0.4-0.1 0.8 0.3 0.8 0.9 0 0.5-0.6 2.1-1.3 3.5-0.7 1.4-1.6 2.5-2 2.5-0.4 0-0.7-0.4-0.7-0.8 0-0.4-0.3-1.8-0.5-3-0.4-1.6 0-2.4 1.2-2.6 1-0.2 2.1-0.5 2.5-0.5zm30.7 0.3c1.4 0.4 2.7 0.8 2.8 1 0.1 0.1-0.2 1.6-1.8 6.1l-2-3c-1-1.7-1.9-3.4-1.8-3.9 0.1-0.5 1.3-0.6 2.8-0.2zm-39.5 1.6l1.7 3.7c0.9 2.1 1.8 4.4 1.9 5.3 0.2 0.8-0.3 3.4-1.1 5.8-0.8 2.5-1.9 4.6-2.4 4.9-0.6 0.2-3.1-0.6-5.5-1.8-2.5-1.2-5.3-2.9-6.3-3.8-1-0.9-1.8-2.6-1.8-3.6 0-1.1 1-3 2.3-4.2 1.3-1.2 4.3-3.1 6.8-4.3zm50.2 1.6c2.1 0.9 5 2.5 6.5 3.5 1.6 1 3 2.8 3.3 3.9 0.3 1.1-0.1 2.9-0.8 4-0.6 1.1-3.2 3.1-5.7 4.4-2.5 1.4-5.2 2.5-6 2.5-0.9 0.1-2.2-1.9-3.3-4.9-1.3-3.8-1.5-5.7-0.7-7.5 0.5-1.4 1.4-3.6 1.9-5 0.9-2.4 1-2.4 4.8-0.9zm-43.9 14.3c0.4 0 1.3 1.3 2.2 2.8 0.8 1.5 1.6 3.1 1.7 3.5 0.2 0.4-0.9 0.5-2.5 0.1-1.5-0.3-2.8-0.7-3-0.7-0.1-0.1 0-1.4 0.4-2.9 0.3-1.5 0.9-2.7 1.2-2.8zm34.3 0.7c0.4 0.5 0.9 1.9 1.3 3.1 0.5 2 0.2 2.3-2.4 2.5-1.6 0.2-3 0.1-3.1 0 0-0.2 0.8-1.7 1.7-3.4 1-1.7 2.1-2.7 2.5-2.2zm-32.2 9.5c3.8 0.7 5.8 1.7 7.8 4 1.6 1.8 3.1 3.8 3.5 4.5q0.8 1.4-2.5 3.7c-1.7 1.3-4.2 2.9-5.5 3.5-1.2 0.7-3.3 1.2-4.7 1.2-1.5 0-2.9-0.8-3.5-2-0.6-1.1-1.1-4.9-1.2-8.4-0.1-3.4 0.1-6.5 0.5-6.8 0.3-0.3 2.9-0.2 5.6 0.3zm34.5-1c0.5-0.1 1 0.9 1.2 2.1 0.2 1.3 0.4 4.2 0.4 6.5 0 2.4-0.5 5.4-1 6.8-0.7 1.8-1.8 2.5-3.8 2.5-1.5 0-4.8-1.4-7.5-3-2.6-1.7-4.9-3.5-5.2-4-0.3-0.6 0.8-2.7 2.5-4.8 2.2-2.8 4.2-4 7.7-4.9 2.7-0.6 5.2-1.2 5.7-1.2zm-19.4 1.9c1.7 0 3.2 0.3 3.5 0.7 0.2 0.4-0.4 1.7-3.5 4.8l-2-2c-1.1-1.1-1.7-2.4-1.4-2.8 0.2-0.4 1.8-0.7 3.4-0.7z"/>
		<path id="Path 11" class="s1" d="m122.6 101c2.1 0 4.2 0.8 5.4 2 1.2 1.2 2 3.3 2 5.3 0 1.9-0.9 4.1-2.3 5.5-1.2 1.2-3.3 2.3-4.7 2.3-1.4 0-3.5-0.8-4.7-1.8-1.3-1-2.6-3.1-2.9-4.8-0.4-2.2 0-3.7 1.6-5.8 1.6-2 3-2.7 5.6-2.7z"/>
	</g>
</svg>